<svg width="49" height="48" viewBox="0 0 49 48" fill="none" xmlns="http://www.w3.org/2000/svg">
<path d="M9.49813 4.50043C9.24789 4.4951 8.99912 4.53979 8.76639 4.63189C8.53366 4.72398 8.32166 4.86161 8.14283 5.03672C7.964 5.21183 7.82193 5.42088 7.72496 5.65162C7.62799 5.88236 7.57807 6.13014 7.57813 6.38043V36.4504C7.57807 36.7007 7.62799 36.9485 7.72496 37.1792C7.82193 37.41 7.964 37.619 8.14283 37.7941C8.32166 37.9692 8.53366 38.1069 8.76639 38.199C8.99912 38.2911 9.24789 38.3358 9.49813 38.3304H11.3781V43.5004L21.7181 38.3304H39.4981C39.9967 38.3304 40.4749 38.1324 40.8275 37.7798C41.1801 37.4272 41.3781 36.949 41.3781 36.4504V6.38043C41.3781 5.88182 41.1801 5.40363 40.8275 5.05106C40.4749 4.6985 39.9967 4.50043 39.4981 4.50043H9.49813ZM14.1981 11.0804H19.7981C20.0428 11.0947 20.2736 11.1983 20.4469 11.3716C20.6202 11.5449 20.7238 11.7758 20.7381 12.0204C20.7065 13.3025 20.9204 14.5787 21.3681 15.7804C21.565 16.1821 21.6096 16.6415 21.4938 17.0736C21.3779 17.5056 21.1095 17.8811 20.7381 18.1304L18.7381 20.1304C19.6121 21.8343 20.7532 23.3873 22.1181 24.7304C23.4742 26.0874 25.0286 27.2304 26.7281 28.1204L28.7281 26.1204C28.9775 25.7491 29.3529 25.4806 29.785 25.3648C30.2171 25.2489 30.6764 25.2936 31.0781 25.4904C32.2798 25.9382 33.5561 26.152 34.8381 26.1204C35.0828 26.1347 35.3136 26.2383 35.4869 26.4116C35.6602 26.5849 35.7638 26.8158 35.7781 27.0604V32.7004C35.7638 32.9451 35.6602 33.1759 35.4869 33.3492C35.3136 33.5225 35.0828 33.6261 34.8381 33.6404C29.1726 33.4157 23.8002 31.063 19.7928 27.0519C15.7853 23.0408 13.4376 17.6661 13.2181 12.0004C13.2371 11.7593 13.3428 11.5333 13.5156 11.3641C13.6884 11.195 13.9167 11.0942 14.1581 11.0804H14.1981Z" stroke="white" stroke-linecap="round" stroke-linejoin="round"/>
</svg>
