<svg width="48" height="48" viewBox="0 0 48 48" fill="none" xmlns="http://www.w3.org/2000/svg">
<path d="M34.8391 27.8288L28.8391 24.8288C28.721 24.7699 28.5895 24.7432 28.4578 24.7515C28.3261 24.7597 28.199 24.8025 28.0891 24.8756L24.9691 26.9569C23.2541 26.1344 21.871 24.7513 21.0485 23.0363L23.1297 19.9163C23.2028 19.8064 23.2456 19.6792 23.2539 19.5475C23.2621 19.4159 23.2355 19.2843 23.1766 19.1663L20.1766 13.1663C20.1144 13.041 20.0184 12.9357 19.8994 12.8621C19.7805 12.7886 19.6433 12.7497 19.5035 12.75C17.7133 12.75 15.9964 13.4612 14.7305 14.727C13.4646 15.9929 12.7535 17.7098 12.7535 19.5C12.758 23.6758 14.4188 27.6793 17.3715 30.632C20.3242 33.5847 24.3277 35.2455 28.5035 35.25C30.2937 35.25 32.0106 34.5388 33.2765 33.273C34.5423 32.0071 35.2535 30.2902 35.2535 28.5C35.2536 28.3607 35.2149 28.2241 35.1417 28.1055C35.0685 27.9869 34.9637 27.8911 34.8391 27.8288ZM28.5035 33.75C24.7254 33.746 21.1031 32.2434 18.4316 29.5719C15.7601 26.9004 14.2575 23.2781 14.2535 19.5C14.2533 18.186 14.7458 16.9197 15.6338 15.9512C16.5218 14.9826 17.7407 14.3823 19.0497 14.2687L21.6372 19.4456L19.5747 22.5469C19.506 22.6492 19.4635 22.7669 19.4511 22.8895C19.4387 23.0122 19.4567 23.136 19.5035 23.25C20.5 25.619 22.3845 27.5035 24.7535 28.5C24.8676 28.5474 24.9917 28.5659 25.1147 28.5538C25.2377 28.5417 25.3558 28.4994 25.4585 28.4306L28.5597 26.3681L33.7366 28.9556C33.6226 30.2647 33.0218 31.4834 32.0529 32.371C31.084 33.2587 29.8175 33.7507 28.5035 33.75ZM24.0035 5.25C20.7393 5.24939 17.5314 6.10097 14.6973 7.72048C11.8632 9.34 9.50097 11.6713 7.8443 14.4839C6.18763 17.2965 5.29392 20.4928 5.25158 23.7568C5.20923 27.0207 6.01972 30.2391 7.60286 33.0938L5.37161 39.7856C5.2394 40.1821 5.22021 40.6075 5.3162 41.0142C5.41219 41.421 5.61955 41.7929 5.91506 42.0884C6.21056 42.3839 6.58252 42.5913 6.98926 42.6873C7.39599 42.7833 7.82142 42.7641 8.21786 42.6319L14.9097 40.4006C17.413 41.7876 20.2005 42.5833 23.0587 42.7265C25.9169 42.8697 28.77 42.3568 31.3993 41.227C34.0287 40.0972 36.3646 38.3806 38.2279 36.2085C40.0913 34.0365 41.4328 31.4668 42.1496 28.6962C42.8663 25.9256 42.9394 23.0277 42.3631 20.2245C41.7869 17.4213 40.5766 14.7872 38.825 12.524C37.0735 10.2609 34.8271 8.42868 32.258 7.16784C29.6889 5.90699 26.8653 5.25096 24.0035 5.25ZM24.0035 41.25C20.9706 41.2509 17.9911 40.4522 15.3654 38.9344C15.2513 38.8687 15.122 38.8338 14.9904 38.8331C14.9094 38.8331 14.8289 38.8464 14.7522 38.8725L7.74348 41.2087C7.61134 41.2528 7.46953 41.2592 7.33395 41.2272C7.19837 41.1952 7.07439 41.1261 6.97588 41.0276C6.87738 40.9291 6.80826 40.8051 6.77627 40.6695C6.74427 40.534 6.75067 40.3921 6.79474 40.26L9.13099 33.2512C9.16468 33.1505 9.17659 33.0437 9.16593 32.938C9.15526 32.8323 9.12226 32.7301 9.06911 32.6381C7.1673 29.3508 6.40352 25.5277 6.89626 21.7619C7.389 17.9962 9.11071 14.4983 11.7943 11.811C14.4779 9.12362 17.9733 7.397 21.7384 6.89896C25.5034 6.40093 29.3276 7.15934 32.6176 9.05652C35.9076 10.9537 38.4796 13.8836 39.9345 17.3917C41.3894 20.8998 41.6459 24.79 40.6642 28.4588C39.6826 32.1276 37.5176 35.3698 34.5052 37.6826C31.4928 39.9953 27.8013 41.2493 24.0035 41.25Z" fill="white"/>
</svg>
