<svg width="120" height="121" viewBox="0 0 120 121" fill="none" xmlns="http://www.w3.org/2000/svg">
<path fill-rule="evenodd" clip-rule="evenodd" d="M55.4225 2.28526C54.2795 2.95326 51.5225 5.05226 49.2955 6.94926L45.2445 10.3983L35.8515 10.1243C23.6555 9.76926 21.9405 10.9343 18.8125 21.6983C16.6215 29.2413 16.6005 29.2693 9.91846 33.5523C-0.811539 40.4293 -1.71454 42.8213 2.49946 53.1923C5.59346 60.8073 5.59346 61.6003 2.49946 68.5963C-1.91754 78.5833 -0.532539 82.1442 10.2795 88.6133C13.7005 90.6592 16.6465 92.4433 16.8265 92.5773C17.0055 92.7103 17.9985 96.1233 19.0325 100.16C20.3895 105.454 21.6735 108.158 23.6415 109.861C26.1795 112.058 27.0225 112.194 35.7305 111.813L45.0915 111.404L50.1295 115.704C58.2635 122.647 61.7355 122.647 69.8695 115.704L74.9075 111.404L84.2685 111.813C92.9765 112.194 93.8195 112.058 96.3575 109.861C98.3365 108.148 99.6125 105.444 101.003 100.013C102.058 95.8952 103.306 92.3982 103.777 92.2412C106.863 91.2122 117.73 83.0283 118.956 80.8092C120.567 77.8952 120.136 75.3503 116.411 65.7503C114.62 61.1353 114.62 60.8653 116.411 56.2503C120.142 46.6353 120.568 44.1063 118.945 41.1913C118.121 39.7113 114.11 36.2403 110.031 33.4783L102.615 28.4563L100.858 21.4783C98.2405 11.0793 96.3235 9.77026 84.2315 10.1223L74.7545 10.3983L70.7035 6.94926C63.4845 0.801256 59.8545 -0.305745 55.4225 2.28526ZM66.7445 12.7503L72.3095 17.5003H82.4035H92.4975L94.5695 25.4643L96.6415 33.4273L103.311 37.4913C114.144 44.0903 113.934 43.6183 110.145 52.7963L106.907 60.6373L110.126 68.8603C113.867 78.4173 114.181 77.6833 103.538 84.2483L96.6445 88.5003L94.5685 96.5003L92.4935 104.5H82.4105H72.3275L66.7545 109.25C63.6885 111.862 60.6495 114 59.9995 114C59.3495 114 56.3125 111.862 53.2495 109.25L47.6805 104.5H37.5925H27.5045L25.4295 96.5003L23.3545 88.5003L16.4605 84.2483C5.84446 77.7003 6.15546 78.4203 9.88046 68.9953L13.0855 60.8853L9.91746 52.9463C6.21746 43.6753 6.14646 43.8583 15.5675 38.3473L21.9645 34.6053L24.8255 26.0523L27.6875 17.5003H37.7775H47.8675L53.1835 12.8033C56.1075 10.2203 59.1025 8.08226 59.8405 8.05326C60.5775 8.02426 63.6845 10.1373 66.7445 12.7503ZM53.1755 23.0703C32.5755 27.1243 18.4065 47.1862 22.0305 67.1702C23.6315 75.9993 26.6195 81.7093 32.9555 88.0443C48.4995 103.589 71.4995 103.589 87.0435 88.0443C99.5915 75.4962 102.118 58.4813 93.7705 42.7483C88.3445 32.5223 78.2845 25.2633 66.5255 23.0893C59.9345 21.8713 59.2735 21.8703 53.1755 23.0703ZM71.4895 31.6693C78.5665 34.0113 87.0605 42.6583 89.5045 50.0103C93.3235 61.4963 91.0385 73.4043 83.3815 81.9202C71.6805 94.9342 52.0305 96.0263 39.0795 84.3823C26.0405 72.6593 24.9405 53.0683 36.5925 40.1083C45.7235 29.9523 57.6115 27.0783 71.4895 31.6693ZM66.9995 56.5003C61.7965 61.7253 57.0925 66.0003 56.5465 66.0003C56.0005 66.0003 52.7225 63.1943 49.2615 59.7643C43.9945 54.5443 42.6875 53.7073 41.2345 54.6223C37.7445 56.8203 38.7295 59.0173 46.8145 67.0583C51.2065 71.4263 55.5485 75.0003 56.4635 75.0003C58.4645 75.0003 80.9995 52.7603 80.9995 50.7853C80.9995 49.1403 79.0375 47.0003 77.5295 47.0003C76.9415 47.0003 72.2025 51.2753 66.9995 56.5003Z" fill="black"/>
</svg>
