<svg width="120" height="120" viewBox="0 0 120 120" fill="none" xmlns="http://www.w3.org/2000/svg">
<path fill-rule="evenodd" clip-rule="evenodd" d="M21.25 0.661876C20.563 0.939876 20 2.47888 20 4.08288C20 6.93488 19.882 6.99988 14.75 7.00388C11.308 7.00588 8.397 7.67988 6.299 8.95988C0.0289998 12.7819 0 12.9929 0 54.3849C0 76.3159 0.405 92.9339 0.975 94.4339C1.511 95.8449 3.424 97.8979 5.225 98.9959C8.285 100.862 10.279 100.993 35.655 100.996L62.81 101L65.385 105.395C72.28 117.16 86.431 122.547 99.632 118.431C107.869 115.863 115.863 107.869 118.431 99.6319C121.981 88.2459 118.333 75.7219 109.258 68.1359L105 64.5759V39.9229C105 16.4359 104.901 15.1439 102.912 12.6149C99.97 8.87488 95.842 6.99988 90.55 6.99988C86.426 6.99988 86 6.77688 86 4.62188C86 1.58688 83.681 -0.351124 81.048 0.484876C79.597 0.944876 79 1.98988 79 4.06688V6.99988H72.566C66.354 6.99988 66.122 6.90888 65.816 4.35088C65.154 -1.19512 59 -0.950123 59 4.62188C59 6.87988 58.674 6.99988 52.563 6.99988H46.127L45.813 3.74988C45.551 1.03388 45.09 0.499876 43 0.499876C41.042 0.499876 40.292 1.20488 39.543 3.74988C38.606 6.93288 38.466 6.99988 32.793 6.99988C27.415 6.99988 27 6.83488 27 4.69988C27 1.01188 24.586 -0.684124 21.25 0.661876ZM20 17.0309C20 22.4949 26.159 22.1499 26.816 16.6489C27.117 14.1289 27.411 13.9999 32.86 13.9999C38.458 13.9999 38.608 14.0729 39.543 17.2499C40.292 19.7949 41.042 20.4999 43 20.4999C45.09 20.4999 45.551 19.9659 45.813 17.2499L46.127 13.9999H52.497C58.641 13.9999 58.878 14.0939 59.184 16.6489C59.846 22.1949 66 21.9499 66 16.3779C66 14.1179 66.323 13.9999 72.5 13.9999H79V17.0309C79 22.4949 85.159 22.1499 85.816 16.6489C86.103 14.2459 86.53 13.9999 90.411 13.9999C96.569 13.9999 98.487 16.4559 98.494 24.3489L98.5 30.4999L52.75 30.7599L7 31.0199V24.5099C7 16.2769 8.841 13.9999 15.5 13.9999C19.844 13.9999 20 14.1049 20 17.0309ZM98.78 49.6419L99.06 61.7829L91.78 61.6869C85.912 61.6089 83.433 62.0899 79 64.1679C69.036 68.8369 62.831 77.4999 61.433 88.6939L60.77 93.9999H35.085C16.441 93.9999 9.071 93.6709 8.2 92.7999C7.325 91.9249 7 84.1979 7 64.2899V36.9799L52.75 37.2399L98.5 37.4999L98.78 49.6419ZM37.04 47.4519C36.377 48.2509 35.989 49.7129 36.176 50.7019C36.827 54.1259 49 53.4119 49 49.9489C49 46.4569 39.51 44.4759 37.04 47.4519ZM58.04 47.4519C57.377 48.2509 56.989 49.7129 57.176 50.7019C57.827 54.1259 70 53.4119 70 49.9489C70 46.4569 60.51 44.4759 58.04 47.4519ZM79.163 46.8779C78.427 47.3449 77.977 48.7999 78.163 50.1129C78.472 52.2989 78.964 52.4999 84 52.4999C89.036 52.4999 89.528 52.2989 89.837 50.1129C90.251 47.1909 88.592 46.0309 84 46.0309C82.075 46.0309 79.898 46.4119 79.163 46.8779ZM15.93 63.5839C13.617 66.3709 16.029 68.4999 21.5 68.4999C24.875 68.4999 26.591 68.0099 27.333 66.8339C29.031 64.1419 26.447 61.9999 21.5 61.9999C18.838 61.9999 16.753 62.5929 15.93 63.5839ZM37.04 63.4519C36.377 64.2509 35.991 65.7129 36.181 66.7019C36.463 68.1669 37.524 68.4999 41.905 68.4999C47.974 68.4999 50.487 66.4959 48.07 63.5839C46.375 61.5419 38.701 61.4499 37.04 63.4519ZM58.163 62.8779C57.427 63.3449 56.977 64.7999 57.163 66.1129C57.459 68.2119 58.1 68.5379 62.467 68.8139C66.244 69.0519 67.732 68.7199 68.678 67.4259C70.852 64.4529 68.599 61.9979 63.715 62.0149C61.397 62.0239 58.898 62.4119 58.163 62.8779ZM99.768 70.5479C104.929 72.7039 107.877 75.6789 110.623 81.4999C114.861 90.4879 113.32 98.9539 106.137 106.137C98.741 113.533 90.169 114.932 80.936 110.25C73.122 106.288 69.676 100.965 69.174 92.0809C68.888 87.0119 69.241 84.2939 70.542 81.5539C72.708 76.9879 77.445 72.1519 81.466 70.3999C85.616 68.5919 95.274 68.6699 99.768 70.5479ZM87.628 77.5279C86.528 80.3949 86.945 91.5449 88.2 92.7999C90.081 94.6809 103.442 94.3769 105.07 92.4159C107.355 89.6619 104.965 87.5399 99.198 87.1989L94.101 86.8989L93.801 81.6989C93.524 76.9239 93.286 76.4749 90.878 76.1959C89.169 75.9979 88.037 76.4619 87.628 77.5279ZM15.93 79.5839C13.617 82.3709 16.029 84.4999 21.5 84.4999C24.875 84.4999 26.591 84.0099 27.333 82.8339C29.031 80.1419 26.447 77.9999 21.5 77.9999C18.838 77.9999 16.753 78.5929 15.93 79.5839ZM36.485 80.0479C35.424 83.3899 37.747 85.1349 42.81 84.7979C51.647 84.2109 50.856 77.9999 41.945 77.9999C37.975 77.9999 37.021 78.3579 36.485 80.0479Z" fill="black"/>
</svg>
